<svg xmlns="http://www.w3.org/2000/svg" width="1600" height="900"><rect width="1600" height="900" fill="#EEF1F0"/><rect x="18" y="18" width="1564" height="864" rx="8" fill="#fff" stroke="#C7D0CC"/><rect x="18" y="18" width="1564" height="58" fill="#217346"/><text x="42" y="55" font-family="Arial" font-size="22" font-weight="700" fill="#fff">Excel 2021+</text><text x="310" y="55" font-family="Arial" font-size="15" fill="#E8F2ED">LearnExcelwithme · Book1.xlsx</text><rect x="35" y="78" width="1530" height="55" fill="#fff"/><text x="55" y="112" font-family="Arial" font-size="16">File   Home   Insert   Page Layout   Formulas   Data   Review   View</text><rect x="35" y="133" width="1530" height="62" fill="#F4F6F5" stroke="#D9E0DD"/><text x="55" y="170" font-family="Arial" font-size="15" font-weight="700">Clipboard   Font   Alignment   Number   Styles</text><rect x="35" y="195" width="1530" height="45" fill="#fff" stroke="#D9E0DD"/><rect x="55" y="202" width="90" height="30" fill="#F2F5F3" stroke="#C9D4CF"/><text x="68" y="223" font-family="Arial" font-size="14">B3</text><text x="160" y="224" font-size="17" fill="#777">fx</text><rect x="190" y="202" width="1350" height="30" fill="#fff" stroke="#C9D4CF"/><text x="202" y="223" font-family="Consolas" font-size="14">Refresh → control total → audit link/formula → dọn test → Save Final</text><text x="55" y="273" font-family="Arial" font-size="19" font-weight="700">Refresh → control total → audit link/formula → dọn test → Save Final</text><rect x="35" y="298" width="760" height="432" fill="#fff" stroke="#C9D4CF"/><rect x="55" y="360" width="160" height="38" fill="#DCEBE4" stroke="#C5D6CE"/><text x="65" y="385" font-family="Arial" font-size="15" font-weight="700">Date</text><rect x="55" y="398" width="160" height="38" fill="#fff" stroke="#D9E2DE"/><text x="65" y="423" font-family="Arial" font-size="14">15/09/2026</text><rect x="55" y="436" width="160" height="38" fill="#fff" stroke="#D9E2DE"/><text x="65" y="461" font-family="Arial" font-size="14">16/09/2026</text><rect x="55" y="474" width="160" height="38" fill="#fff" stroke="#D9E2DE"/><text x="65" y="499" font-family="Arial" font-size="14">17/09/2026</text><rect x="215" y="360" width="160" height="38" fill="#DCEBE4" stroke="#C5D6CE"/><text x="225" y="385" font-family="Arial" font-size="15" font-weight="700">Store</text><rect x="215" y="398" width="160" height="38" fill="#fff" stroke="#D9E2DE"/><text x="225" y="423" font-family="Arial" font-size="14">HN01</text><rect x="215" y="436" width="160" height="38" fill="#fff" stroke="#D9E2DE"/><text x="225" y="461" font-family="Arial" font-size="14">HN02</text><rect x="215" y="474" width="160" height="38" fill="#fff" stroke="#D9E2DE"/><text x="225" y="499" font-family="Arial" font-size="14">HCM01</text><rect x="375" y="360" width="190" height="38" fill="#DCEBE4" stroke="#C5D6CE"/><text x="385" y="385" font-family="Arial" font-size="15" font-weight="700">Revenue</text><rect x="375" y="398" width="190" height="38" fill="#fff" stroke="#D9E2DE"/><text x="385" y="423" font-family="Arial" font-size="14">12500000</text><rect x="375" y="436" width="190" height="38" fill="#fff" stroke="#D9E2DE"/><text x="385" y="461" font-family="Arial" font-size="14">9800000</text><rect x="375" y="474" width="190" height="38" fill="#fff" stroke="#D9E2DE"/><text x="385" y="499" font-family="Arial" font-size="14">15400000</text><rect x="565" y="360" width="150" height="38" fill="#DCEBE4" stroke="#C5D6CE"/><text x="575" y="385" font-family="Arial" font-size="15" font-weight="700">Status</text><rect x="565" y="398" width="150" height="38" fill="#fff" stroke="#D9E2DE"/><text x="575" y="423" font-family="Arial" font-size="14">OK</text><rect x="565" y="436" width="150" height="38" fill="#fff" stroke="#D9E2DE"/><text x="575" y="461" font-family="Arial" font-size="14">OK</text><rect x="565" y="474" width="150" height="38" fill="#fff" stroke="#D9E2DE"/><text x="575" y="499" font-family="Arial" font-size="14">Check</text><rect x="820" y="298" width="700" height="432" fill="#FAFBFA" stroke="#C9D4CF"/><text x="850" y="370" font-family="Arial" font-size="21" font-weight="700">Excel 2021+ · thao tác thực tế</text><text x="850" y="410" font-size="15">Đang chọn: Refresh → control total → audit link/formula → dọn test → Save Fi</text><rect x="850" y="435" width="620" height="58" fill="#F5F8F6" stroke="#D7E0DC"/><text x="865" y="470" font-family="Consolas" font-size="15">Refresh → control total → audit link/formula → dọn test → Save Final</text><text x="850" y="530" font-size="15" font-weight="700" fill="#217346">Kết quả cần thấy</text><text x="850" y="560" font-size="15">Người nhận mở/refresh được và biết kiểm tra số ở đâu</text><rect x="35" y="750" width="1485" height="78" fill="#F8FAF9" stroke="#D9E0DD"/><text x="55" y="778" font-size="15" font-weight="700" fill="#2F6B45">KẾT QUẢ MONG ĐỢI</text><text x="55" y="805" font-size="15">Người nhận mở/refresh được và biết kiểm tra số ở đâu</text><text x="1420" y="805" font-size="14" fill="#6A7771">Bài 21/42</text></svg>