<svg xmlns="http://www.w3.org/2000/svg" width="1420" height="820"><rect width="1420" height="820" fill="#fff"/><rect width="1420" height="110" fill="#146b45"/><text x="42" y="43" font-family="Arial" font-size="17" font-weight="700" fill="#dff4e8">LEARN EXCEL WITH ME · 42 BÀI</text><text x="42" y="82" font-family="Arial" font-size="32" font-weight="700" fill="#fff">Bài 25: KPI Cards: làm nổi bật số quan trọng</text><g><rect x="25" y="145" width="430" height="600" rx="18" fill="#fff" stroke="#cbded4" stroke-width="3"/><rect x="25" y="145" width="430" height="58" rx="18" fill="#e8f5ee"/><circle cx="59" cy="174" r="22" fill="#217346"/><text x="59" y="181" text-anchor="middle" font-family="Arial" font-size="20" font-weight="700" fill="#fff">1</text><text x="95" y="182" font-family="Arial" font-size="20" font-weight="700" fill="#174f36">ĐẦU VÀO</text><rect x="41" y="220" width="398" height="35" fill="#217346"/><text x="55" y="243" font-family="Arial" font-size="13" fill="#fff">File  Home  Insert  Formulas  Data  Review</text><rect x="53" y="315" width="374" height="250" fill="#fff" stroke="#d6ded9"/><path d="M53 353h374M53 403h374M53 453h374M53 503h374M155 315v250M270 315v250" stroke="#d6ded9"/><rect x="53" y="315" width="374" height="38" fill="#dfeee7"/><text x="67" y="340" font-family="Arial" font-size="12" font-weight="700">Excel 2021+</text><text x="67" y="380" font-family="Arial" font-size="12">Actual 12,5m · Target 12m</text><text x="67" y="425" font-family="Arial" font-size="12"></text><text x="67" y="470" font-family="Arial" font-size="12"></text><rect x="53" y="585" width="374" height="120" rx="12" fill="#f0f7f3"/><text x="67" y="616" font-family="Arial" font-size="14" font-weight="700" fill="#174f36">Actual 12,5m · Target 12m</text></g><g><rect x="480" y="145" width="430" height="600" rx="18" fill="#fff" stroke="#cbded4" stroke-width="3"/><rect x="480" y="145" width="430" height="58" rx="18" fill="#e8f5ee"/><circle cx="514" cy="174" r="22" fill="#217346"/><text x="514" y="181" text-anchor="middle" font-family="Arial" font-size="20" font-weight="700" fill="#fff">2</text><text x="550" y="182" font-family="Arial" font-size="20" font-weight="700" fill="#174f36">THAO TÁC</text><rect x="496" y="220" width="398" height="35" fill="#217346"/><text x="510" y="243" font-family="Arial" font-size="13" fill="#fff">File  Home  Insert  Formulas  Data  Review</text><rect x="508" y="315" width="374" height="250" fill="#fff" stroke="#d6ded9"/><path d="M508 353h374M508 403h374M508 453h374M508 503h374M610 315v250M725 315v250" stroke="#d6ded9"/><rect x="508" y="315" width="374" height="38" fill="#dfeee7"/><text x="522" y="340" font-family="Arial" font-size="12" font-weight="700">Excel 2021+</text><text x="522" y="380" font-family="Arial" font-size="12">Card = Actual + variance + status m</text><text x="522" y="425" font-family="Arial" font-size="12">àu semantic</text><text x="522" y="470" font-family="Arial" font-size="12"></text><rect x="508" y="585" width="374" height="120" rx="12" fill="#f0f7f3"/><text x="522" y="616" font-family="Arial" font-size="14" font-weight="700" fill="#174f36">Card = Actual + variance + status màu semantic</text></g><g><rect x="935" y="145" width="430" height="600" rx="18" fill="#fff" stroke="#cbded4" stroke-width="3"/><rect x="935" y="145" width="430" height="58" rx="18" fill="#e8f5ee"/><circle cx="969" cy="174" r="22" fill="#217346"/><text x="969" y="181" text-anchor="middle" font-family="Arial" font-size="20" font-weight="700" fill="#fff">3</text><text x="1005" y="182" font-family="Arial" font-size="20" font-weight="700" fill="#174f36">KẾT QUẢ</text><rect x="951" y="220" width="398" height="35" fill="#217346"/><text x="965" y="243" font-family="Arial" font-size="13" fill="#fff">File  Home  Insert  Formulas  Data  Review</text><rect x="963" y="315" width="374" height="250" fill="#fff" stroke="#d6ded9"/><path d="M963 353h374M963 403h374M963 453h374M963 503h374M1065 315v250M1180 315v250" stroke="#d6ded9"/><rect x="963" y="315" width="374" height="38" fill="#dfeee7"/><text x="977" y="340" font-family="Arial" font-size="12" font-weight="700">Excel 2021+</text><text x="977" y="380" font-family="Arial" font-size="12">Card cho biết 104,2% target, +0,5m,</text><text x="977" y="425" font-family="Arial" font-size="12"> trạng thái đạt</text><text x="977" y="470" font-family="Arial" font-size="12"></text><rect x="963" y="585" width="374" height="120" rx="12" fill="#f0f7f3"/><text x="977" y="616" font-family="Arial" font-size="14" font-weight="700" fill="#174f36">Card cho biết 104,2% target, +0,5m, trạng thái đạt</text></g><text x="42" y="792" font-family="Arial" font-size="15" fill="#64736b">Thao tác minh họa được khóa theo lesson ID và mục tiêu của bài.</text></svg>